<svg width="16" height="16" viewBox="0 0 16 16" fill="none" xmlns="http://www.w3.org/2000/svg">
    <path fill-rule="evenodd" clip-rule="evenodd" d="M5 11.997V4.0026C5.00011 3.8044 5.06871 3.61067 5.19716 3.44586C5.32561 3.28106 5.50815 3.15256 5.72173 3.0766C5.93531 3.00063 6.17036 2.98061 6.3972 3.01904C6.62405 3.05748 6.83253 3.15266 6.99632 3.29256L11.6575 7.29076C11.8768 7.47885 12 7.73388 12 7.99979C12 8.26571 11.8768 8.52074 11.6575 8.70883L6.99632 12.706C6.83282 12.8464 6.6244 12.9419 6.39747 12.9807C6.17055 13.0194 5.93531 12.9996 5.72155 12.9237C5.50779 12.8477 5.32512 12.7192 5.19667 12.5542C5.06823 12.3892 4.99978 12.1953 5 11.997Z" fill="#252129"/>
</svg>
