<svg width="16" height="16" viewBox="0 0 16 16" fill="none" xmlns="http://www.w3.org/2000/svg">
    <path fill-rule="evenodd" clip-rule="evenodd" d="M9.16143 1L9.19998 1H10.8L10.8385 1H10.8386H10.8386C11.3657 0.999985 11.8205 0.999972 12.195 1.03057C12.5903 1.06287 12.9836 1.13419 13.3619 1.32698C13.9264 1.6146 14.3854 2.07355 14.673 2.63803C14.8658 3.01641 14.9371 3.40963 14.9694 3.80498C15 4.17955 15 4.63431 15 5.16145V5.16148V5.2V7.8V7.83853V7.83856C15 8.3657 15 8.82046 14.9694 9.19503C14.9371 9.59038 14.8658 9.9836 14.673 10.362C14.3854 10.9265 13.9264 11.3854 13.3619 11.673C12.9836 11.8658 12.5903 11.9371 12.195 11.9694C12.1274 11.975 12.0571 11.9795 11.9843 11.9832C12.0001 11.6371 12 11.2544 12 10.8638L12 10.8V9.97858L12.0321 9.97608C12.3038 9.95388 12.4045 9.9162 12.454 9.89101C12.6421 9.79514 12.7951 9.64216 12.891 9.45399C12.9162 9.40455 12.9539 9.30383 12.976 9.03217C12.9992 8.74883 13 8.37656 13 7.8V5.2C13 4.62345 12.9992 4.25118 12.976 3.96784C12.9539 3.69618 12.9162 3.59546 12.891 3.54601C12.7951 3.35785 12.6421 3.20487 12.454 3.109C12.4045 3.0838 12.3038 3.04613 12.0321 3.02393C11.7488 3.00078 11.3765 3 10.8 3H9.19998C8.67239 3 8.31586 3.00066 8.042 3.0185C7.68074 2.9999 7.27668 2.99995 6.8638 3H6.86377L6.79998 3.00001H5.19998L5.17823 3C5.21745 2.87814 5.26616 2.75735 5.32696 2.63803C5.61458 2.07355 6.07352 1.6146 6.638 1.32698C7.01638 1.13419 7.4096 1.06287 7.80495 1.03057C8.17949 0.999972 8.63422 0.999985 9.16132 1H9.16135H9.16143ZM5.2 4L5.16146 4H5.16145C4.63431 3.99998 4.17955 3.99997 3.80497 4.03057C3.40963 4.06287 3.01641 4.13419 2.63803 4.32698C2.07354 4.6146 1.6146 5.07354 1.32698 5.63803C1.13419 6.01641 1.06287 6.40963 1.03057 6.80497C0.999969 7.17953 0.999984 7.63428 1 8.16141V8.16146V8.2V10.8V10.8385V10.8386C0.999984 11.3657 0.999969 11.8205 1.03057 12.195C1.06287 12.5904 1.13419 12.9836 1.32698 13.362C1.6146 13.9265 2.07354 14.3854 2.63803 14.673C3.01641 14.8658 3.40963 14.9371 3.80497 14.9694C4.17954 15 4.6343 15 5.16145 15H5.16148H5.2H6.8H6.83853H6.83856C7.3657 15 7.82046 15 8.19503 14.9694C8.59038 14.9371 8.98359 14.8658 9.36197 14.673C9.92646 14.3854 10.3854 13.9265 10.673 13.362C10.8658 12.9836 10.9371 12.5904 10.9694 12.195C11 11.8205 11 11.3657 11 10.8386V10.8385V10.8V8.2V8.16148V8.16145C11 7.6343 11 7.17954 10.9694 6.80497C10.9371 6.40963 10.8658 6.01641 10.673 5.63803C10.3854 5.07354 9.92646 4.6146 9.36197 4.32698C8.98359 4.13419 8.59038 4.06287 8.19503 4.03057C7.82046 3.99997 7.3657 3.99998 6.83855 4H6.83855L6.8 4H5.2ZM3.54601 6.10899C3.59546 6.0838 3.69618 6.04612 3.96784 6.02393C4.25118 6.00078 4.62345 6 5.2 6H6.8C7.37656 6 7.74883 6.00078 8.03217 6.02393C8.30383 6.04612 8.40455 6.0838 8.45399 6.10899C8.64216 6.20487 8.79514 6.35785 8.89101 6.54601C8.9162 6.59545 8.95388 6.69617 8.97608 6.96784C8.99923 7.25117 9 7.62345 9 8.2V10.8C9 11.3766 8.99923 11.7488 8.97608 12.0322C8.95388 12.3038 8.9162 12.4045 8.89101 12.454C8.79514 12.6422 8.64216 12.7951 8.45399 12.891C8.40455 12.9162 8.30383 12.9539 8.03217 12.9761C7.74883 12.9992 7.37656 13 6.8 13H5.2C4.62345 13 4.25118 12.9992 3.96784 12.9761C3.69618 12.9539 3.59546 12.9162 3.54601 12.891C3.35785 12.7951 3.20487 12.6422 3.109 12.454C3.0838 12.4045 3.04613 12.3038 3.02393 12.0322C3.00078 11.7488 3 11.3766 3 10.8V8.2C3 7.62345 3.00078 7.25117 3.02393 6.96784C3.04613 6.69617 3.0838 6.59545 3.109 6.54601C3.20487 6.35785 3.35785 6.20487 3.54601 6.10899Z" fill="#9F9F9F"/>
</svg>
