<svg width="25" height="24" viewBox="0 0 25 24" fill="none" xmlns="http://www.w3.org/2000/svg">
    <path fill-rule="evenodd" clip-rule="evenodd" d="M7 13.5C7.82843 13.5 8.5 12.8284 8.5 12C8.5 11.1716 7.82843 10.5 7 10.5C6.17157 10.5 5.5 11.1716 5.5 12C5.5 12.8284 6.17157 13.5 7 13.5ZM14 12C14 12.8284 13.3284 13.5 12.5 13.5C11.6716 13.5 11 12.8284 11 12C11 11.1716 11.6716 10.5 12.5 10.5C13.3284 10.5 14 11.1716 14 12ZM19.5 12C19.5 12.8284 18.8284 13.5 18 13.5C17.1716 13.5 16.5 12.8284 16.5 12C16.5 11.1716 17.1716 10.5 18 10.5C18.8284 10.5 19.5 11.1716 19.5 12Z" fill="#252129"/>
</svg>
