<svg width="24" height="24" viewBox="0 0 24 24" fill="none" xmlns="http://www.w3.org/2000/svg">
    <path fill-rule="evenodd" clip-rule="evenodd" d="M18.6239 9.35889C20.3272 10.2106 21 11.2021 21 12C21 12.7979 20.3272 13.7894 18.6239 14.6411C18.1299 14.8881 17.9297 15.4888 18.1766 15.9827C18.4236 16.4767 19.0243 16.677 19.5183 16.43C21.4342 15.472 23 13.9635 23 12C23 10.0365 21.4342 8.52801 19.5183 7.57004C17.6366 6.6292 15.1347 6.05636 12.4103 6.00394L13.7071 4.70711C14.0976 4.31658 14.0976 3.68342 13.7071 3.29289C13.3166 2.90237 12.6834 2.90237 12.2929 3.29289L9.29289 6.29289C8.90237 6.68342 8.90237 7.31658 9.29289 7.70711L12.2929 10.7071C12.6834 11.0976 13.3166 11.0976 13.7071 10.7071C14.0976 10.3166 14.0976 9.68342 13.7071 9.29289L12.4187 8.00452C14.8869 8.05796 17.0678 8.58085 18.6239 9.35889ZM4.48172 7.57004C2.56577 8.52801 1 10.0365 1 12C1 13.9635 2.56577 15.472 4.48172 16.43C6.3634 17.3708 8.86527 17.9436 11.5897 17.9961L10.2929 19.2929C9.90237 19.6834 9.90237 20.3166 10.2929 20.7071C10.6834 21.0976 11.3166 21.0976 11.7071 20.7071L14.7071 17.7071C15.0976 17.3166 15.0976 16.6834 14.7071 16.2929L11.7071 13.2929C11.3166 12.9024 10.6834 12.9024 10.2929 13.2929C9.90237 13.6834 9.90237 14.3166 10.2929 14.7071L11.5813 15.9955C9.11309 15.942 6.93223 15.4191 5.37615 14.6411C3.67281 13.7894 3 12.7979 3 12C3 11.2021 3.67281 10.2106 5.37615 9.35889C5.87012 9.1119 6.07035 8.51123 5.82336 8.01725C5.57637 7.52327 4.9757 7.32305 4.48172 7.57004Z" fill="#252129"/>
</svg>
