<svg width="24" height="24" viewBox="0 0 24 24" fill="none" xmlns="http://www.w3.org/2000/svg">
    <path fill-rule="evenodd" clip-rule="evenodd" d="M11.4 1H11.3572C10.2734 0.99999 9.39925 0.999982 8.69138 1.05782C7.96253 1.11737 7.32234 1.24318 6.73005 1.54497C5.78924 2.02433 5.02433 2.78924 4.54497 3.73005C4.24318 4.32234 4.11737 4.96253 4.05782 5.69138C3.99998 6.39926 3.99999 7.27341 4 8.35719L4 8.4V11H2C1.44772 11 1 11.4477 1 12C1 12.5523 1.44772 13 2 13L5 13L10.5858 13L9.29289 14.2929C8.90237 14.6834 8.90237 15.3166 9.29289 15.7071C9.68342 16.0976 10.3166 16.0976 10.7071 15.7071L13.7071 12.7071C14.0976 12.3166 14.0976 11.6834 13.7071 11.2929L10.7071 8.29289C10.3166 7.90237 9.68342 7.90237 9.29289 8.29289C8.90237 8.68342 8.90237 9.31658 9.29289 9.70711L10.5858 11H6V8.4C6 7.26339 6.00078 6.47108 6.05118 5.85424C6.10062 5.24907 6.19279 4.90138 6.32698 4.63803C6.6146 4.07354 7.07354 3.6146 7.63803 3.32698C7.90138 3.19279 8.24907 3.10062 8.85424 3.05118C9.47108 3.00078 10.2634 3 11.4 3H13.6C14.7366 3 15.5289 3.00078 16.1458 3.05118C16.7509 3.10062 17.0986 3.19279 17.362 3.32698C17.9265 3.6146 18.3854 4.07354 18.673 4.63803C18.8072 4.90138 18.8994 5.24907 18.9488 5.85424C18.9992 6.47108 19 7.26339 19 8.4V15.6C19 16.7366 18.9992 17.5289 18.9488 18.1458C18.8994 18.7509 18.8072 19.0986 18.673 19.362C18.3854 19.9265 17.9265 20.3854 17.362 20.673C17.0986 20.8072 16.7509 20.8994 16.1458 20.9488C15.5289 20.9992 14.7366 21 13.6 21H11.4C10.2634 21 9.47108 20.9992 8.85424 20.9488C8.24907 20.8994 7.90138 20.8072 7.63803 20.673C7.07354 20.3854 6.6146 19.9265 6.32698 19.362C6.11241 18.9409 6.02405 18.3554 6.0055 16.9864C5.99802 16.4342 5.54428 15.9926 4.99204 16.0001C4.43981 16.0076 3.9982 16.4613 4.00568 17.0135C4.02372 18.3448 4.09169 19.3804 4.54497 20.27C5.02433 21.2108 5.78924 21.9757 6.73005 22.455C7.32234 22.7568 7.96253 22.8826 8.69138 22.9422C9.39923 23 10.2733 23 11.3571 23H11.3572H11.4H13.6H13.6428H13.6429C14.7267 23 15.6008 23 16.3086 22.9422C17.0375 22.8826 17.6777 22.7568 18.27 22.455C19.2108 21.9757 19.9757 21.2108 20.455 20.27C20.7568 19.6777 20.8826 19.0375 20.9422 18.3086C21 17.6008 21 16.7267 21 15.6429V15.6428V15.6V8.4V8.35717V8.35706C21 7.27334 21 6.39923 20.9422 5.69138C20.8826 4.96253 20.7568 4.32234 20.455 3.73005C19.9757 2.78924 19.2108 2.02433 18.27 1.54497C17.6777 1.24318 17.0375 1.11737 16.3086 1.05782C15.6007 0.999982 14.7266 0.99999 13.6428 1H13.6H11.4Z" fill="#252129"/>
</svg>
