<svg width="40" height="40" viewBox="0 0 40 40" fill="none" xmlns="http://www.w3.org/2000/svg">
    <path d="M0 20C0 8.95431 8.95431 0 20 0C31.0457 0 40 8.95431 40 20C40 31.0457 31.0457 40 20 40C8.95431 40 0 31.0457 0 20Z" fill="#FF5533"/>
    <path d="M14.9385 17.2065C15.0176 17.1367 15.0572 17.1018 15.0634 17.0677C15.0689 17.0379 15.0606 17.0074 15.0409 16.9845C15.0182 16.9582 14.9673 16.9483 14.8654 16.9285C13.6773 16.6972 12.4473 16.5616 11.3683 16.5503C11.3165 16.5498 11.2906 16.5495 11.2706 16.5398C11.2527 16.5312 11.2381 16.5178 11.228 16.5008C11.2166 16.4816 11.2141 16.4561 11.2092 16.405L10.8091 12.2912C10.8042 12.2402 10.8017 12.2147 10.8093 12.1935C10.816 12.1749 10.8282 12.1586 10.8442 12.1469C10.8623 12.1335 10.8874 12.1287 10.9377 12.1189C16.9647 10.9529 22.9636 10.893 29.0809 12.1212C29.131 12.1312 29.156 12.1363 29.174 12.1497C29.1899 12.1615 29.2019 12.1778 29.2085 12.1964C29.2161 12.2176 29.2135 12.243 29.2084 12.2939L28.7933 16.4056C28.7882 16.4565 28.7856 16.4819 28.7742 16.501C28.7641 16.518 28.7495 16.5313 28.7317 16.5398C28.7117 16.5495 28.6858 16.5498 28.6342 16.5503C27.5551 16.5615 26.3249 16.6972 25.1366 16.9285C25.0347 16.9483 24.9838 16.9582 24.9612 16.9845C24.9415 17.0074 24.9332 17.0379 24.9386 17.0677C24.9448 17.1018 24.9844 17.1367 25.0636 17.2065C27.9266 19.7305 29.9516 23.0559 29.9971 27.7278C29.9976 27.7839 29.9979 27.812 29.9871 27.8336C29.9776 27.8524 29.9621 27.8681 29.9433 27.8777C29.9218 27.8888 29.8938 27.8888 29.8378 27.8888H25.7134C25.6574 27.8888 25.6293 27.8888 25.6081 27.8781C25.5893 27.8686 25.5742 27.8538 25.5645 27.835C25.5535 27.8139 25.5531 27.7852 25.5523 27.7278C25.4988 23.8283 23.4961 21.2287 20.0883 19.0033C20.0568 18.9828 20.041 18.9725 20.0239 18.9685C20.009 18.9649 19.993 18.9649 19.9781 18.9685C19.961 18.9725 19.9453 18.9828 19.9138 19.0033C16.5059 21.2287 14.5032 23.8283 14.4497 27.7278C14.4489 27.7852 14.4486 27.8139 14.4375 27.835C14.4278 27.8538 14.4128 27.8686 14.3939 27.8781C14.3727 27.8888 14.3447 27.8888 14.2886 27.8888H10.1642C10.1082 27.8888 10.0802 27.8888 10.0587 27.8777C10.0399 27.8681 10.0244 27.8524 10.015 27.8336C10.0042 27.812 10.0044 27.7839 10.005 27.7278C10.0504 23.0559 12.0754 19.7305 14.9385 17.2065Z" fill="white"/>
</svg>
