<svg width="124" height="40" viewBox="0 0 124 40" fill="none" xmlns="http://www.w3.org/2000/svg">
    <path d="M54.6 30.416C53.7853 30.416 53.0053 30.338 52.26 30.182V25.112H53.196C53.976 25.112 54.5827 24.9213 55.016 24.54C55.4667 24.1587 55.7267 23.552 55.796 22.72L56.654 11.8H72.644V30H67.184V17H61.464L60.944 24.02C60.788 26.0653 60.1467 27.6427 59.02 28.752C57.8933 29.8613 56.42 30.416 54.6 30.416Z" fill="#252129"/>
    <path d="M82.8397 16.324C85.1623 16.324 86.9216 16.8873 88.1176 18.014C89.331 19.1233 89.9376 20.6227 89.9376 22.512V30H86.2717L85.5697 28.7H85.4397C84.261 29.844 82.623 30.416 80.5257 30.416C79.3643 30.416 78.359 30.234 77.5097 29.87C76.6777 29.4887 76.045 28.9773 75.6117 28.336C75.1783 27.6947 74.9617 26.9927 74.9617 26.23C74.9617 24.93 75.499 23.89 76.5737 23.11C77.6483 22.3127 79.3383 21.914 81.6437 21.914H85.1796C85.145 21.342 84.9197 20.8913 84.5037 20.562C84.0877 20.2327 83.481 20.068 82.6837 20.068C81.5743 20.068 80.829 20.38 80.4477 21.004L75.7157 20.562C75.993 19.418 76.7123 18.43 77.8737 17.598C79.035 16.7487 80.6903 16.324 82.8397 16.324ZM81.9557 26.802C82.9957 26.802 83.793 26.6027 84.3477 26.204C84.9023 25.8053 85.1796 25.294 85.1796 24.67V24.384H81.6697C80.9937 24.384 80.4997 24.4967 80.1877 24.722C79.8757 24.93 79.7197 25.2073 79.7197 25.554C79.7197 25.9353 79.893 26.2387 80.2397 26.464C80.5863 26.6893 81.1583 26.802 81.9557 26.802Z" fill="#252129"/>
    <path d="M104.888 23.006C105.512 23.1967 106.058 23.5607 106.526 24.098C107.011 24.618 107.254 25.3287 107.254 26.23C107.254 26.9233 107.063 27.556 106.682 28.128C106.301 28.7 105.746 29.1593 105.018 29.506C104.29 29.8353 103.432 30 102.444 30H92.4861V16.74H101.976C102.929 16.74 103.753 16.9047 104.446 17.234C105.157 17.5633 105.694 18.0053 106.058 18.56C106.439 19.0973 106.63 19.6953 106.63 20.354C106.63 20.9953 106.465 21.55 106.136 22.018C105.807 22.4687 105.391 22.798 104.888 23.006ZM97.3481 20.016V21.862H100.546C100.91 21.862 101.187 21.784 101.378 21.628C101.569 21.4547 101.664 21.2207 101.664 20.926C101.664 20.6487 101.56 20.432 101.352 20.276C101.161 20.1027 100.893 20.016 100.546 20.016H97.3481ZM101.014 26.724C101.43 26.724 101.742 26.6287 101.95 26.438C102.175 26.2473 102.288 25.996 102.288 25.684C102.288 25.3373 102.175 25.0773 101.95 24.904C101.742 24.7133 101.43 24.618 101.014 24.618H97.3481V26.724H101.014Z" fill="#252129"/>
    <path d="M116.407 16.324C118.73 16.324 120.489 16.8873 121.685 18.014C122.898 19.1233 123.505 20.6227 123.505 22.512V30H119.839L119.137 28.7H119.007C117.828 29.844 116.19 30.416 114.093 30.416C112.932 30.416 111.926 30.234 111.077 29.87C110.245 29.4887 109.612 28.9773 109.179 28.336C108.746 27.6947 108.529 26.9927 108.529 26.23C108.529 24.93 109.066 23.89 110.141 23.11C111.216 22.3127 112.906 21.914 115.211 21.914H118.747C118.712 21.342 118.487 20.8913 118.071 20.562C117.655 20.2327 117.048 20.068 116.251 20.068C115.142 20.068 114.396 20.38 114.015 21.004L109.283 20.562C109.56 19.418 110.28 18.43 111.441 17.598C112.602 16.7487 114.258 16.324 116.407 16.324ZM115.523 26.802C116.563 26.802 117.36 26.6027 117.915 26.204C118.47 25.8053 118.747 25.294 118.747 24.67V24.384H115.237C114.561 24.384 114.067 24.4967 113.755 24.722C113.443 24.93 113.287 25.2073 113.287 25.554C113.287 25.9353 113.46 26.2387 113.807 26.464C114.154 26.6893 114.726 26.802 115.523 26.802Z" fill="#252129"/>
    <rect width="40" height="40" rx="20" fill="#FF5533"/>
    <path d="M14.9385 17.2065C15.0176 17.1367 15.0572 17.1018 15.0634 17.0677C15.0688 17.0379 15.0606 17.0074 15.0408 16.9845C15.0182 16.9582 14.9673 16.9483 14.8654 16.9285C13.6773 16.6972 12.4473 16.5616 11.3683 16.5503C11.3165 16.5498 11.2906 16.5495 11.2705 16.5398C11.2527 16.5312 11.2381 16.5178 11.228 16.5008C11.2166 16.4816 11.2141 16.4561 11.2092 16.405L10.8091 12.2913C10.8042 12.2402 10.8017 12.2147 10.8093 12.1935C10.816 12.1749 10.8282 12.1586 10.8441 12.1469C10.8623 12.1335 10.8874 12.1287 10.9377 12.1189C16.9647 10.9529 22.9636 10.893 29.0809 12.1212C29.131 12.1313 29.156 12.1363 29.174 12.1497C29.1899 12.1615 29.2019 12.1778 29.2085 12.1964C29.2161 12.2176 29.2135 12.243 29.2084 12.2939L28.7933 16.4056C28.7882 16.4565 28.7856 16.4819 28.7742 16.501C28.7641 16.518 28.7495 16.5313 28.7317 16.5399C28.7116 16.5495 28.6858 16.5498 28.6342 16.5503C27.5551 16.5615 26.3249 16.6972 25.1366 16.9285C25.0347 16.9483 24.9838 16.9582 24.9612 16.9845C24.9415 17.0074 24.9332 17.0379 24.9386 17.0677C24.9448 17.1018 24.9844 17.1367 25.0636 17.2065C27.9266 19.7305 29.9516 23.056 29.997 27.7278C29.9976 27.7839 29.9979 27.812 29.987 27.8336C29.9776 27.8525 29.9621 27.8681 29.9433 27.8778C29.9218 27.8888 29.8938 27.8888 29.8378 27.8888H25.7134C25.6574 27.8888 25.6293 27.8888 25.6081 27.8781C25.5892 27.8686 25.5742 27.8538 25.5645 27.835C25.5535 27.8139 25.5531 27.7852 25.5523 27.7278C25.4988 23.8283 23.4961 21.2287 20.0882 19.0033C20.0567 18.9828 20.041 18.9725 20.0239 18.9685C20.009 18.9649 19.993 18.9649 19.9781 18.9685C19.961 18.9725 19.9453 18.9828 19.9138 19.0033C16.5059 21.2287 14.5032 23.8283 14.4497 27.7278C14.4489 27.7852 14.4485 27.8139 14.4375 27.835C14.4278 27.8538 14.4128 27.8686 14.3939 27.8781C14.3727 27.8888 14.3447 27.8888 14.2886 27.8888H10.1642C10.1082 27.8888 10.0802 27.8888 10.0587 27.8778C10.0399 27.8681 10.0244 27.8525 10.015 27.8336C10.0041 27.812 10.0044 27.7839 10.005 27.7278C10.0504 23.056 12.0754 19.7305 14.9385 17.2065Z" fill="white"/>
</svg>
