<svg width="24" height="24" viewBox="0 0 24 24" fill="none" xmlns="http://www.w3.org/2000/svg">
    <path fill-rule="evenodd" clip-rule="evenodd" d="M6.49992 9C6.49992 5.9021 8.69124 3 11.9999 3C15.3085 3 17.4999 5.90212 17.4999 9C17.4999 10.5766 18.3622 11.4977 18.928 12.1021C18.9696 12.1465 19.0095 12.1891 19.0474 12.2302C19.3473 12.5556 19.4994 12.7524 19.5757 12.945C19.6326 13.0887 19.6743 13.2994 19.5476 13.6948C19.3552 14.2953 18.5813 15.0194 17.0986 15.6053C15.6794 16.1662 13.8492 16.5 12 16.5C10.1507 16.5 8.32047 16.1662 6.90113 15.6053C5.41841 15.0194 4.64452 14.2953 4.45207 13.6948C4.32537 13.2994 4.36716 13.0888 4.42406 12.9451C4.50033 12.7525 4.65238 12.5557 4.95235 12.2304C4.99021 12.1893 5.03012 12.1467 5.07163 12.1024L5.07164 12.1024C5.6375 11.498 6.49992 10.5769 6.49992 9ZM11.9999 1C7.30852 1 4.49992 5.0979 4.49992 9C4.49992 9.77227 4.14227 10.1596 3.54609 10.8052L3.48201 10.8746C3.18772 11.1938 2.79263 11.6327 2.56454 12.2088C2.31708 12.8337 2.2973 13.5245 2.54749 14.3052C3.0262 15.799 4.54516 16.8249 6.16613 17.4654C7.85048 18.131 9.93474 18.5 12 18.5C14.0652 18.5 16.1494 18.1309 17.8337 17.4653C19.4546 16.8248 20.9735 15.7989 21.4522 14.3052C21.7024 13.5245 21.6826 12.8337 21.4352 12.2088C21.2071 11.6327 20.8121 11.1938 20.5178 10.8746L20.4536 10.805C19.8575 10.1594 19.4999 9.77207 19.4999 9C19.4999 5.09788 16.6912 1 11.9999 1ZM10.7701 19.862C10.4177 19.4367 9.78735 19.3776 9.36205 19.7299C8.93675 20.0823 8.87759 20.7127 9.22992 21.138C9.95715 22.0158 10.9556 22.5 12 22.5C13.0444 22.5 14.0428 22.0158 14.7701 21.138C15.1224 20.7127 15.0633 20.0823 14.638 19.7299C14.2127 19.3776 13.5823 19.4367 13.2299 19.862C12.8526 20.3175 12.4033 20.5 12 20.5C11.5967 20.5 11.1474 20.3175 10.7701 19.862Z" fill="#9F9F9F"/>
</svg>
