<svg width="24" height="24" viewBox="0 0 24 24" fill="none" xmlns="http://www.w3.org/2000/svg">
    <path fill-rule="evenodd" clip-rule="evenodd" d="M5 5.00024H19C20.6569 5.00024 22 6.34339 22 8.00024V17.0002C22 18.6571 20.6569 20.0002 19 20.0002H5C3.34315 20.0002 2 18.6571 2 17.0002V8.00024C2 6.34339 3.34315 5.00024 5 5.00024ZM19 18.0002C19.5523 18.0002 20 17.5525 20 17.0002V11.0002H4V17.0002C4 17.5525 4.44772 18.0002 5 18.0002H19ZM20 9.00049H4V8.00049C4 7.44821 4.44772 7.00049 5 7.00049H19C19.5523 7.00049 20 7.44821 20 8.00049V9.00049ZM12 13H6V15H12V13Z" fill="#252129"/>
</svg>
