<svg width="56" height="56" viewBox="0 0 56 56" fill="none" xmlns="http://www.w3.org/2000/svg">
    <path d="M0 28C0 12.536 12.536 0 28 0V0C43.464 0 56 12.536 56 28V28C56 43.464 43.464 56 28 56V56C12.536 56 0 43.464 0 28V28Z" fill="#FD8C00"/>
    <path d="M40.6279 35.2864C41.2712 35.5339 41.5187 36.4978 41.5679 36.9182C41.667 37.6853 41.4449 37.982 41.1974 37.982C40.9499 37.982 40.6033 37.6853 40.2328 37.0919C39.8615 36.4978 39.7132 35.8306 39.9115 35.484C40.0345 35.2611 40.3058 35.1627 40.6279 35.2864ZM36.8693 38.0812C37.2651 38.0812 37.7102 38.2541 38.106 38.6C38.8723 39.2433 39.0952 39.985 38.6994 40.5292C38.4765 40.8013 38.106 40.9743 37.6856 40.9743C37.2651 40.9743 36.8201 40.8259 36.5234 40.5538C35.8309 39.9604 35.6333 38.9705 36.0776 38.427C36.2513 38.2041 36.5234 38.0812 36.8693 38.0812ZM28.2145 45.2279C18.8165 45.2279 11.2002 37.6108 11.2002 28.2135C11.2002 18.8163 18.8173 11.2 28.2138 11.2C37.611 11.2 45.2281 18.817 45.2281 28.2135C45.2281 31.4033 44.338 34.3964 42.83 36.9436C42.78 37.0174 42.6563 36.9928 42.6317 36.8936C42.0383 32.7146 39.4911 30.4141 35.7817 29.7223C35.4596 29.6724 35.4104 29.4748 35.8309 29.4256C36.9684 29.3265 38.5756 29.3511 39.4165 29.4994C39.4657 29.079 39.4911 28.634 39.4911 28.1889C39.4911 21.9815 34.4458 16.9362 28.2384 16.9362C22.0317 16.9362 16.9864 21.9815 16.9864 28.1889C16.9864 34.3964 22.0317 39.4416 28.2391 39.4416H28.758C28.5817 38.4376 28.507 37.4184 28.535 36.3994C28.5604 35.7069 28.7088 35.6077 29.0054 36.1519C30.5635 38.8475 32.7894 41.271 37.1414 42.2356C40.7024 43.0273 44.2635 43.9419 48.0966 48.8135C48.4425 49.2339 47.9237 49.679 47.5278 49.3331C43.6209 45.8704 40.0598 44.7329 36.8201 44.7329C33.1845 44.7582 30.7126 45.2279 28.2145 45.2279Z" fill="white"/>
</svg>
