<svg width="24" height="24" viewBox="0 0 24 24" fill="none" xmlns="http://www.w3.org/2000/svg">
    <path fill-rule="evenodd" clip-rule="evenodd" d="M7.82812 4.54352C7.77617 4.41811 7.78139 4.30439 7.88054 4.14829C7.99693 3.96506 8.23065 3.764 8.54549 3.62884C8.86113 3.49334 9.15647 3.46749 9.35399 3.51036C9.51187 3.54462 9.60816 3.61467 9.67573 3.7778C10.533 5.84731 13.4646 5.84763 14.3219 3.77788C14.3738 3.65253 14.4578 3.57589 14.6382 3.53567C14.85 3.48845 15.1574 3.51158 15.4756 3.6387C15.7946 3.76613 16.0217 3.95675 16.1311 4.1268C16.2186 4.26276 16.2371 4.38043 16.1695 4.54351C15.312 6.61374 17.386 8.68628 19.4555 7.82907C19.6188 7.76144 19.7365 7.78002 19.8724 7.86745C20.0425 7.97681 20.233 8.2039 20.3604 8.52286C20.4875 8.84102 20.5106 9.14841 20.4633 9.36024C20.423 9.54068 20.3463 9.62486 20.2208 9.67687C18.1516 10.534 18.1499 13.466 20.2203 14.3236C20.3833 14.3911 20.4534 14.4874 20.4877 14.6454C20.5306 14.843 20.5048 15.1384 20.3694 15.454C20.2343 15.7689 20.0333 16.0027 19.8501 16.119C19.6941 16.2181 19.5806 16.2233 19.4552 16.1714C17.3854 15.3141 15.3131 17.3876 16.1702 19.4568C16.2221 19.5822 16.2169 19.6959 16.1178 19.8519C16.0014 20.035 15.7677 20.236 15.4529 20.3711C15.1372 20.5065 14.8418 20.5324 14.6442 20.4895C14.4862 20.4551 14.3899 20.385 14.3223 20.2219C13.4648 18.1518 10.5327 18.1521 9.67532 20.222C9.62334 20.3475 9.53921 20.4242 9.35875 20.4644C9.14691 20.5117 8.8395 20.4886 8.52132 20.3615C8.20234 20.2341 7.97523 20.0436 7.86587 19.8736C7.77845 19.7377 7.75988 19.62 7.82748 19.4568C8.68461 17.3875 6.61226 15.3137 4.54221 16.1711C4.41691 16.223 4.30329 16.2178 4.14725 16.1187C3.96407 16.0023 3.76304 15.7686 3.6279 15.4537C3.49242 15.138 3.46657 14.8427 3.50945 14.6451C3.54372 14.4872 3.61378 14.3909 3.77681 14.3234C5.84708 13.4659 5.8454 10.5341 3.77637 9.67704C3.65081 9.62503 3.57412 9.54088 3.53388 9.36049C3.48663 9.1487 3.50974 8.84133 3.63684 8.52318C3.76426 8.20423 3.95486 7.97713 4.12493 7.86776C4.2609 7.78031 4.37868 7.76174 4.54195 7.82937C6.61166 8.68667 8.68569 6.61387 7.82812 4.54352ZM11.5235 3.01243C11.1807 2.18494 10.5122 1.71515 9.77813 1.55585C9.08368 1.40515 8.35988 1.53202 7.75654 1.79103C7.1524 2.05038 6.56729 2.48562 6.19231 3.07597C5.8001 3.69346 5.64143 4.49063 5.98036 5.30889C6.15579 5.73242 5.73149 6.15731 5.30732 5.98161C4.47983 5.63885 3.6749 5.77928 3.0431 6.1856C2.44539 6.57 2.02316 7.17145 1.77956 7.78121C1.53565 8.39178 1.42957 9.1133 1.58186 9.79595C1.74115 10.51 2.19271 11.1859 3.01101 11.5248C3.4351 11.7005 3.43429 12.3005 3.01145 12.4756C2.18397 12.8184 1.71424 13.4869 1.55494 14.221C1.40425 14.9154 1.53107 15.6391 1.79001 16.2425C2.0493 16.8466 2.48445 17.4318 3.07474 17.8068C3.69217 18.1991 4.48931 18.3578 5.30758 18.0189C5.7307 17.8436 6.1553 18.2675 5.97972 18.6914C5.63696 19.5189 5.77744 20.3238 6.18384 20.9556C6.5683 21.5532 7.16979 21.9754 7.77957 22.2189C8.39014 22.4627 9.11165 22.5687 9.79427 22.4164C10.5083 22.2571 11.1841 21.8056 11.5231 20.9873C11.6987 20.5634 12.299 20.5635 12.4746 20.9873C12.8173 21.8147 13.4858 22.2845 14.2198 22.4439C14.9143 22.5947 15.6381 22.468 16.2415 22.2091C16.8456 21.9498 17.4308 21.5147 17.8059 20.9244C18.1982 20.3069 18.3569 19.5097 18.018 18.6915C17.8425 18.2678 18.2669 17.844 18.6899 18.0192C19.5082 18.3581 20.3053 18.1994 20.9227 17.8071C21.513 17.432 21.9481 16.8468 22.2073 16.2427C22.4662 15.6393 22.593 14.9155 22.4422 14.2211C22.2829 13.4871 21.8131 12.8185 20.9857 12.4758C20.5627 12.3006 20.5619 11.7004 20.9861 11.5246C21.8044 11.1857 22.256 10.5098 22.4153 9.79582C22.5676 9.11318 22.4616 8.39165 22.2178 7.78106C21.9742 7.17127 21.552 6.56979 20.9543 6.18535C20.3226 5.77898 19.5176 5.63855 18.6901 5.98131C18.2661 6.15696 17.842 5.73218 18.0173 5.30887C18.3601 4.4814 18.2195 3.67652 17.8132 3.04481C17.4287 2.44719 16.8273 2.02501 16.2176 1.78143C15.6071 1.53752 14.8856 1.43141 14.203 1.5836C13.489 1.7428 12.8131 2.19423 12.4741 3.01251C12.2988 3.43585 11.6989 3.436 11.5235 3.01243ZM9.99998 12C9.99998 10.8954 10.8954 9.99998 12 9.99998C13.1046 9.99998 14 10.8954 14 12C14 13.1046 13.1046 14 12 14C10.8954 14 9.99998 13.1046 9.99998 12ZM12 7.99998C9.79084 7.99998 7.99998 9.79084 7.99998 12C7.99998 14.2091 9.79084 16 12 16C14.2091 16 16 14.2091 16 12C16 9.79084 14.2091 7.99998 12 7.99998Z" fill="#252129"/>
</svg>
