<svg width="56" height="56" viewBox="0 0 56 56" fill="none" xmlns="http://www.w3.org/2000/svg">
    <path d="M0 28C0 12.536 12.536 0 28 0V0C43.464 0 56 12.536 56 28V28C56 43.464 43.464 56 28 56V56C12.536 56 0 43.464 0 28V28Z" fill="#8B3FFD"/>
    <path d="M32.1996 16.1C25.1821 16.1 19.6 21.762 19.6 28.7C19.6 35.7177 25.2618 41.3 32.1996 41.3C39.1373 41.3 44.7992 35.6379 44.7992 28.7C44.8789 21.762 39.1373 16.1 32.1996 16.1ZM32.1996 33.405C29.6478 33.405 27.4946 31.2519 27.4946 28.7C27.4946 26.1481 29.6478 23.9949 32.1996 23.9949C34.7513 23.9949 36.9045 26.1481 36.9045 28.7C36.9045 31.2519 34.8311 33.405 32.1996 33.405Z" fill="white"/>
    <path d="M19.6 18.9V38.5H15.2697L9.79999 18.9H19.6Z" fill="white"/>
</svg>
